<mxfile host="app.diagrams.net" agent="Mozilla/5.0 (Windows NT 10.0; Win64; x64) AppleWebKit/537.36 (KHTML, like Gecko) Chrome/134.0.0.0 Safari/537.36" version="26.1.1" pages="2">
  <diagram name="Oracle VirtualBox snapshot" id="Rl22nojB6Xttbjnxy_bW">
    <mxGraphModel dx="931" dy="609" grid="1" gridSize="10" guides="1" tooltips="1" connect="1" arrows="1" fold="1" page="1" pageScale="1" pageWidth="850" pageHeight="1100" math="0" shadow="0">
      <root>
        <mxCell id="0" />
        <mxCell id="1" parent="0" />
        <mxCell id="eUQJTLkNMrvtOKzA322Z-4" style="edgeStyle=orthogonalEdgeStyle;rounded=0;orthogonalLoop=1;jettySize=auto;html=1;exitX=0.5;exitY=1;exitDx=0;exitDy=0;entryX=0.5;entryY=0;entryDx=0;entryDy=0;" edge="1" parent="1" source="eUQJTLkNMrvtOKzA322Z-1" target="eUQJTLkNMrvtOKzA322Z-3">
          <mxGeometry relative="1" as="geometry" />
        </mxCell>
        <mxCell id="eUQJTLkNMrvtOKzA322Z-13" value="snapsot taken" style="edgeLabel;html=1;align=center;verticalAlign=middle;resizable=0;points=[];" vertex="1" connectable="0" parent="eUQJTLkNMrvtOKzA322Z-4">
          <mxGeometry x="-0.16" y="-1" relative="1" as="geometry">
            <mxPoint as="offset" />
          </mxGeometry>
        </mxCell>
        <mxCell id="eUQJTLkNMrvtOKzA322Z-1" value="STATE 2" style="rounded=1;whiteSpace=wrap;html=1;absoluteArcSize=1;arcSize=14;strokeWidth=2;" vertex="1" parent="1">
          <mxGeometry x="180" y="435" width="100" height="60" as="geometry" />
        </mxCell>
        <mxCell id="eUQJTLkNMrvtOKzA322Z-3" value="STATE 3" style="rounded=1;whiteSpace=wrap;html=1;absoluteArcSize=1;arcSize=14;strokeWidth=2;" vertex="1" parent="1">
          <mxGeometry x="180" y="570" width="100" height="60" as="geometry" />
        </mxCell>
        <mxCell id="eUQJTLkNMrvtOKzA322Z-20" style="edgeStyle=orthogonalEdgeStyle;rounded=0;orthogonalLoop=1;jettySize=auto;html=1;exitX=1;exitY=0.5;exitDx=0;exitDy=0;exitPerimeter=0;entryX=1;entryY=0.5;entryDx=0;entryDy=0;" edge="1" parent="1" source="eUQJTLkNMrvtOKzA322Z-5" target="eUQJTLkNMrvtOKzA322Z-1">
          <mxGeometry relative="1" as="geometry" />
        </mxCell>
        <mxCell id="eUQJTLkNMrvtOKzA322Z-21" value="yes" style="edgeLabel;html=1;align=center;verticalAlign=middle;resizable=0;points=[];" vertex="1" connectable="0" parent="eUQJTLkNMrvtOKzA322Z-20">
          <mxGeometry x="-0.7644" y="1" relative="1" as="geometry">
            <mxPoint as="offset" />
          </mxGeometry>
        </mxCell>
        <mxCell id="eUQJTLkNMrvtOKzA322Z-25" style="edgeStyle=orthogonalEdgeStyle;rounded=0;orthogonalLoop=1;jettySize=auto;html=1;exitX=0.5;exitY=1;exitDx=0;exitDy=0;exitPerimeter=0;entryX=0.5;entryY=0;entryDx=0;entryDy=0;" edge="1" parent="1" source="eUQJTLkNMrvtOKzA322Z-5" target="eUQJTLkNMrvtOKzA322Z-24">
          <mxGeometry relative="1" as="geometry" />
        </mxCell>
        <mxCell id="eUQJTLkNMrvtOKzA322Z-26" value="no" style="edgeLabel;html=1;align=center;verticalAlign=middle;resizable=0;points=[];" vertex="1" connectable="0" parent="eUQJTLkNMrvtOKzA322Z-25">
          <mxGeometry x="-0.5229" relative="1" as="geometry">
            <mxPoint as="offset" />
          </mxGeometry>
        </mxCell>
        <mxCell id="eUQJTLkNMrvtOKzA322Z-5" value="restore?" style="strokeWidth=2;html=1;shape=mxgraph.flowchart.decision;whiteSpace=wrap;" vertex="1" parent="1">
          <mxGeometry x="180" y="710" width="100" height="100" as="geometry" />
        </mxCell>
        <mxCell id="eUQJTLkNMrvtOKzA322Z-6" style="edgeStyle=orthogonalEdgeStyle;rounded=0;orthogonalLoop=1;jettySize=auto;html=1;exitX=0.5;exitY=1;exitDx=0;exitDy=0;entryX=0.5;entryY=0;entryDx=0;entryDy=0;entryPerimeter=0;" edge="1" parent="1" source="eUQJTLkNMrvtOKzA322Z-3" target="eUQJTLkNMrvtOKzA322Z-5">
          <mxGeometry relative="1" as="geometry" />
        </mxCell>
        <mxCell id="eUQJTLkNMrvtOKzA322Z-14" value="future changes" style="edgeLabel;html=1;align=center;verticalAlign=middle;resizable=0;points=[];" vertex="1" connectable="0" parent="eUQJTLkNMrvtOKzA322Z-6">
          <mxGeometry x="-0.02" y="-2" relative="1" as="geometry">
            <mxPoint as="offset" />
          </mxGeometry>
        </mxCell>
        <mxCell id="eUQJTLkNMrvtOKzA322Z-9" value="" style="endArrow=none;dashed=1;html=1;rounded=0;strokeWidth=4;" edge="1" parent="1">
          <mxGeometry width="50" height="50" relative="1" as="geometry">
            <mxPoint x="127.5" y="410" as="sourcePoint" />
            <mxPoint x="457.5" y="410" as="targetPoint" />
          </mxGeometry>
        </mxCell>
        <mxCell id="eUQJTLkNMrvtOKzA322Z-11" style="edgeStyle=orthogonalEdgeStyle;rounded=0;orthogonalLoop=1;jettySize=auto;html=1;exitX=0.5;exitY=1;exitDx=0;exitDy=0;entryX=0.5;entryY=0;entryDx=0;entryDy=0;" edge="1" parent="1" source="eUQJTLkNMrvtOKzA322Z-10" target="eUQJTLkNMrvtOKzA322Z-1">
          <mxGeometry relative="1" as="geometry" />
        </mxCell>
        <mxCell id="eUQJTLkNMrvtOKzA322Z-12" value="fresh installation" style="edgeLabel;html=1;align=center;verticalAlign=middle;resizable=0;points=[];" vertex="1" connectable="0" parent="eUQJTLkNMrvtOKzA322Z-11">
          <mxGeometry x="-0.3" y="1" relative="1" as="geometry">
            <mxPoint as="offset" />
          </mxGeometry>
        </mxCell>
        <mxCell id="eUQJTLkNMrvtOKzA322Z-10" value="STATE 1" style="rounded=1;whiteSpace=wrap;html=1;absoluteArcSize=1;arcSize=14;strokeWidth=2;" vertex="1" parent="1">
          <mxGeometry x="180" y="310" width="100" height="60" as="geometry" />
        </mxCell>
        <mxCell id="eUQJTLkNMrvtOKzA322Z-15" value="" style="endArrow=none;dashed=1;html=1;rounded=0;strokeWidth=4;" edge="1" parent="1">
          <mxGeometry width="50" height="50" relative="1" as="geometry">
            <mxPoint x="127.5" y="549" as="sourcePoint" />
            <mxPoint x="457.5" y="549" as="targetPoint" />
          </mxGeometry>
        </mxCell>
        <mxCell id="eUQJTLkNMrvtOKzA322Z-17" value="PRE-snapsot" style="text;html=1;align=center;verticalAlign=middle;whiteSpace=wrap;rounded=0;" vertex="1" parent="1">
          <mxGeometry x="365" y="330" width="80" height="30" as="geometry" />
        </mxCell>
        <mxCell id="eUQJTLkNMrvtOKzA322Z-18" value="DURING-snapsot" style="text;html=1;align=center;verticalAlign=middle;whiteSpace=wrap;rounded=0;" vertex="1" parent="1">
          <mxGeometry x="350" y="450" width="110" height="30" as="geometry" />
        </mxCell>
        <mxCell id="eUQJTLkNMrvtOKzA322Z-19" value="POST-snapsot" style="text;html=1;align=center;verticalAlign=middle;whiteSpace=wrap;rounded=0;" vertex="1" parent="1">
          <mxGeometry x="352.5" y="600" width="105" height="30" as="geometry" />
        </mxCell>
        <mxCell id="eUQJTLkNMrvtOKzA322Z-24" value="&lt;div style=&quot;text-align: center;&quot;&gt;&lt;span style=&quot;background-color: transparent; color: light-dark(rgb(0, 0, 0), rgb(255, 255, 255));&quot;&gt;STATE X&lt;/span&gt;&lt;/div&gt;&lt;div&gt;- deleting VM OR&lt;/div&gt;&lt;div&gt;- more current snapsot&lt;/div&gt;" style="rounded=1;whiteSpace=wrap;html=1;absoluteArcSize=1;arcSize=14;strokeWidth=2;align=left;" vertex="1" parent="1">
          <mxGeometry x="160" y="870" width="140" height="60" as="geometry" />
        </mxCell>
        <mxCell id="eUQJTLkNMrvtOKzA322Z-28" value="End" style="strokeWidth=2;html=1;shape=mxgraph.flowchart.terminator;whiteSpace=wrap;" vertex="1" parent="1">
          <mxGeometry x="180" y="990" width="100" height="60" as="geometry" />
        </mxCell>
        <mxCell id="eUQJTLkNMrvtOKzA322Z-29" style="edgeStyle=orthogonalEdgeStyle;rounded=0;orthogonalLoop=1;jettySize=auto;html=1;exitX=0.5;exitY=1;exitDx=0;exitDy=0;entryX=0.5;entryY=0;entryDx=0;entryDy=0;entryPerimeter=0;" edge="1" parent="1" source="eUQJTLkNMrvtOKzA322Z-24" target="eUQJTLkNMrvtOKzA322Z-28">
          <mxGeometry relative="1" as="geometry" />
        </mxCell>
        <mxCell id="eUQJTLkNMrvtOKzA322Z-33" style="edgeStyle=orthogonalEdgeStyle;rounded=0;orthogonalLoop=1;jettySize=auto;html=1;exitX=0.5;exitY=1;exitDx=0;exitDy=0;exitPerimeter=0;entryX=0.5;entryY=0;entryDx=0;entryDy=0;" edge="1" parent="1" source="eUQJTLkNMrvtOKzA322Z-32" target="eUQJTLkNMrvtOKzA322Z-10">
          <mxGeometry relative="1" as="geometry" />
        </mxCell>
        <mxCell id="eUQJTLkNMrvtOKzA322Z-32" value="start" style="strokeWidth=2;html=1;shape=mxgraph.flowchart.start_2;whiteSpace=wrap;" vertex="1" parent="1">
          <mxGeometry x="180" y="160" width="100" height="100" as="geometry" />
        </mxCell>
        <mxCell id="eUQJTLkNMrvtOKzA322Z-34" value="&lt;h1 style=&quot;margin-top: 0px;&quot;&gt;How Snapshot in Oracle VM VirtualBox works&lt;/h1&gt;&lt;p&gt;This flowchart visualizes the operation of snapsot feature on Oracle Virtual Machine VirtualBox.&lt;/p&gt;" style="text;html=1;whiteSpace=wrap;overflow=hidden;rounded=0;" vertex="1" parent="1">
          <mxGeometry x="40" y="40" width="560" height="120" as="geometry" />
        </mxCell>
      </root>
    </mxGraphModel>
  </diagram>
  <diagram id="ZqgumgO5FEsu6kO9VH2V" name="MTI Doppler">
    <mxGraphModel dx="1114" dy="691" grid="1" gridSize="10" guides="1" tooltips="1" connect="1" arrows="1" fold="1" page="1" pageScale="1" pageWidth="1169" pageHeight="827" math="0" shadow="0">
      <root>
        <mxCell id="0" />
        <mxCell id="1" parent="0" />
        <mxCell id="e6REnJBTHGOFhiStDokc-2" value="Doppler Radar" style="rounded=0;whiteSpace=wrap;html=1;fontFamily=Times New Roman;fontSize=20;" parent="1" vertex="1">
          <mxGeometry x="40" y="240" width="120" height="60" as="geometry" />
        </mxCell>
        <mxCell id="e6REnJBTHGOFhiStDokc-3" value="" style="fontColor=#0066CC;verticalAlign=top;verticalLabelPosition=bottom;labelPosition=center;align=center;html=1;outlineConnect=0;fillColor=#CCCCCC;strokeColor=#6881B3;gradientColor=none;gradientDirection=north;strokeWidth=2;shape=mxgraph.networks.satellite_dish;" parent="1" vertex="1">
          <mxGeometry x="120" y="140" width="90" height="100" as="geometry" />
        </mxCell>
        <mxCell id="e6REnJBTHGOFhiStDokc-5" value="" style="shape=mxgraph.signs.transportation.airplane_1;html=1;pointerEvents=1;fillColor=#000000;strokeColor=none;verticalLabelPosition=bottom;verticalAlign=top;align=center;sketch=0;" parent="1" vertex="1">
          <mxGeometry x="650" y="65" width="99" height="35" as="geometry" />
        </mxCell>
        <mxCell id="e6REnJBTHGOFhiStDokc-6" value="" style="shape=mxgraph.signs.transportation.airplane_1;html=1;pointerEvents=1;fillColor=#000000;strokeColor=none;verticalLabelPosition=bottom;verticalAlign=top;align=center;sketch=0;" parent="1" vertex="1">
          <mxGeometry x="650" y="140" width="99" height="35" as="geometry" />
        </mxCell>
        <mxCell id="e6REnJBTHGOFhiStDokc-8" value="" style="endArrow=classic;html=1;rounded=0;entryX=0.08;entryY=0.9;entryDx=0;entryDy=0;entryPerimeter=0;exitX=0.91;exitY=0.09;exitDx=0;exitDy=0;exitPerimeter=0;strokeWidth=3;" parent="1" source="e6REnJBTHGOFhiStDokc-3" target="e6REnJBTHGOFhiStDokc-5" edge="1">
          <mxGeometry width="50" height="50" relative="1" as="geometry">
            <mxPoint x="220" y="180" as="sourcePoint" />
            <mxPoint x="300" y="120" as="targetPoint" />
          </mxGeometry>
        </mxCell>
        <mxCell id="e6REnJBTHGOFhiStDokc-9" value="" style="endArrow=classic;html=1;rounded=0;exitX=0.08;exitY=0.9;exitDx=0;exitDy=0;exitPerimeter=0;strokeWidth=3;" parent="1" source="e6REnJBTHGOFhiStDokc-6" target="e6REnJBTHGOFhiStDokc-3" edge="1">
          <mxGeometry width="50" height="50" relative="1" as="geometry">
            <mxPoint x="540" y="270" as="sourcePoint" />
            <mxPoint x="590" y="220" as="targetPoint" />
          </mxGeometry>
        </mxCell>
        <mxCell id="e6REnJBTHGOFhiStDokc-10" value="" style="endArrow=classic;html=1;rounded=0;strokeWidth=2;" parent="1" edge="1">
          <mxGeometry width="50" height="50" relative="1" as="geometry">
            <mxPoint x="770" y="90" as="sourcePoint" />
            <mxPoint x="910" y="90" as="targetPoint" />
          </mxGeometry>
        </mxCell>
        <mxCell id="e6REnJBTHGOFhiStDokc-11" value="&lt;font face=&quot;Times New Roman&quot;&gt;&lt;span style=&quot;font-size: 20px;&quot;&gt;Velocity&lt;/span&gt;&lt;/font&gt;" style="text;html=1;align=center;verticalAlign=middle;whiteSpace=wrap;rounded=0;" parent="1" vertex="1">
          <mxGeometry x="790" y="60" width="80" height="30" as="geometry" />
        </mxCell>
        <mxCell id="e6REnJBTHGOFhiStDokc-12" value="&lt;font face=&quot;Times New Roman&quot;&gt;&lt;span style=&quot;font-size: 20px;&quot;&gt;Velocity&lt;/span&gt;&lt;/font&gt;" style="text;html=1;align=center;verticalAlign=middle;whiteSpace=wrap;rounded=0;" parent="1" vertex="1">
          <mxGeometry x="320" y="90" width="80" height="30" as="geometry" />
        </mxCell>
        <mxCell id="Jt7xizfIm4eWe8StRdt0-5" style="edgeStyle=orthogonalEdgeStyle;rounded=0;orthogonalLoop=1;jettySize=auto;html=1;exitX=0.5;exitY=0;exitDx=0;exitDy=0;entryX=0;entryY=0.5;entryDx=0;entryDy=0;" edge="1" parent="1" source="Jt7xizfIm4eWe8StRdt0-1" target="Jt7xizfIm4eWe8StRdt0-2">
          <mxGeometry relative="1" as="geometry" />
        </mxCell>
        <mxCell id="Jt7xizfIm4eWe8StRdt0-28" style="edgeStyle=orthogonalEdgeStyle;rounded=0;orthogonalLoop=1;jettySize=auto;html=1;exitX=1;exitY=0.5;exitDx=0;exitDy=0;entryX=0;entryY=0.5;entryDx=0;entryDy=0;startArrow=classic;startFill=1;" edge="1" parent="1" source="Jt7xizfIm4eWe8StRdt0-1" target="Jt7xizfIm4eWe8StRdt0-6">
          <mxGeometry relative="1" as="geometry" />
        </mxCell>
        <mxCell id="Jt7xizfIm4eWe8StRdt0-1" value="Mixer 2" style="rounded=0;whiteSpace=wrap;html=1;fontFamily=Times New Roman;fontSize=20;" vertex="1" parent="1">
          <mxGeometry x="40" y="440" width="120" height="40" as="geometry" />
        </mxCell>
        <mxCell id="Jt7xizfIm4eWe8StRdt0-4" style="edgeStyle=orthogonalEdgeStyle;rounded=0;orthogonalLoop=1;jettySize=auto;html=1;exitX=1;exitY=0.5;exitDx=0;exitDy=0;entryX=0;entryY=0.5;entryDx=0;entryDy=0;" edge="1" parent="1" source="Jt7xizfIm4eWe8StRdt0-2" target="Jt7xizfIm4eWe8StRdt0-3">
          <mxGeometry relative="1" as="geometry" />
        </mxCell>
        <mxCell id="Jt7xizfIm4eWe8StRdt0-2" value="Klystron amplifier" style="rounded=0;whiteSpace=wrap;html=1;fontFamily=Times New Roman;fontSize=20;" vertex="1" parent="1">
          <mxGeometry x="200" y="360" width="160" height="50" as="geometry" />
        </mxCell>
        <mxCell id="Jt7xizfIm4eWe8StRdt0-17" style="edgeStyle=orthogonalEdgeStyle;rounded=0;orthogonalLoop=1;jettySize=auto;html=1;exitX=0.5;exitY=1;exitDx=0;exitDy=0;entryX=0.5;entryY=0;entryDx=0;entryDy=0;" edge="1" parent="1" source="Jt7xizfIm4eWe8StRdt0-3" target="Jt7xizfIm4eWe8StRdt0-6">
          <mxGeometry relative="1" as="geometry" />
        </mxCell>
        <mxCell id="Jt7xizfIm4eWe8StRdt0-3" value="Duplexer" style="rounded=0;whiteSpace=wrap;html=1;fontFamily=Times New Roman;fontSize=20;" vertex="1" parent="1">
          <mxGeometry x="440" y="360" width="160" height="50" as="geometry" />
        </mxCell>
        <mxCell id="Jt7xizfIm4eWe8StRdt0-18" style="edgeStyle=orthogonalEdgeStyle;rounded=0;orthogonalLoop=1;jettySize=auto;html=1;exitX=0.5;exitY=1;exitDx=0;exitDy=0;entryX=0.5;entryY=0;entryDx=0;entryDy=0;" edge="1" parent="1" source="Jt7xizfIm4eWe8StRdt0-6" target="Jt7xizfIm4eWe8StRdt0-7">
          <mxGeometry relative="1" as="geometry" />
        </mxCell>
        <mxCell id="Jt7xizfIm4eWe8StRdt0-6" value="Mixer 1" style="rounded=0;whiteSpace=wrap;html=1;fontFamily=Times New Roman;fontSize=20;" vertex="1" parent="1">
          <mxGeometry x="460" y="440" width="120" height="40" as="geometry" />
        </mxCell>
        <mxCell id="Jt7xizfIm4eWe8StRdt0-19" style="edgeStyle=orthogonalEdgeStyle;rounded=0;orthogonalLoop=1;jettySize=auto;html=1;exitX=0.5;exitY=1;exitDx=0;exitDy=0;entryX=0.5;entryY=0;entryDx=0;entryDy=0;" edge="1" parent="1" source="Jt7xizfIm4eWe8StRdt0-7" target="Jt7xizfIm4eWe8StRdt0-8">
          <mxGeometry relative="1" as="geometry" />
        </mxCell>
        <mxCell id="Jt7xizfIm4eWe8StRdt0-7" value="IF amplifier" style="rounded=0;whiteSpace=wrap;html=1;fontFamily=Times New Roman;fontSize=20;" vertex="1" parent="1">
          <mxGeometry x="460" y="510" width="120" height="40" as="geometry" />
        </mxCell>
        <mxCell id="Jt7xizfIm4eWe8StRdt0-20" style="edgeStyle=orthogonalEdgeStyle;rounded=0;orthogonalLoop=1;jettySize=auto;html=1;exitX=0.5;exitY=1;exitDx=0;exitDy=0;entryX=0.5;entryY=0;entryDx=0;entryDy=0;" edge="1" parent="1" source="Jt7xizfIm4eWe8StRdt0-8" target="Jt7xizfIm4eWe8StRdt0-9">
          <mxGeometry relative="1" as="geometry" />
        </mxCell>
        <mxCell id="Jt7xizfIm4eWe8StRdt0-21" style="edgeStyle=orthogonalEdgeStyle;rounded=0;orthogonalLoop=1;jettySize=auto;html=1;exitX=0.5;exitY=1;exitDx=0;exitDy=0;entryX=1;entryY=0.5;entryDx=0;entryDy=0;" edge="1" parent="1" source="Jt7xizfIm4eWe8StRdt0-8" target="Jt7xizfIm4eWe8StRdt0-10">
          <mxGeometry relative="1" as="geometry" />
        </mxCell>
        <mxCell id="Jt7xizfIm4eWe8StRdt0-29" style="edgeStyle=orthogonalEdgeStyle;rounded=0;orthogonalLoop=1;jettySize=auto;html=1;exitX=0;exitY=0.5;exitDx=0;exitDy=0;entryX=0.5;entryY=1;entryDx=0;entryDy=0;startArrow=classic;startFill=1;" edge="1" parent="1" source="Jt7xizfIm4eWe8StRdt0-8" target="Jt7xizfIm4eWe8StRdt0-1">
          <mxGeometry relative="1" as="geometry" />
        </mxCell>
        <mxCell id="Jt7xizfIm4eWe8StRdt0-8" value="phase detector" style="rounded=0;whiteSpace=wrap;html=1;fontFamily=Times New Roman;fontSize=20;" vertex="1" parent="1">
          <mxGeometry x="460" y="580" width="120" height="40" as="geometry" />
        </mxCell>
        <mxCell id="Jt7xizfIm4eWe8StRdt0-23" style="edgeStyle=orthogonalEdgeStyle;rounded=0;orthogonalLoop=1;jettySize=auto;html=1;exitX=0;exitY=0.5;exitDx=0;exitDy=0;entryX=1;entryY=0.5;entryDx=0;entryDy=0;" edge="1" parent="1" source="Jt7xizfIm4eWe8StRdt0-9" target="Jt7xizfIm4eWe8StRdt0-11">
          <mxGeometry relative="1" as="geometry" />
        </mxCell>
        <mxCell id="Jt7xizfIm4eWe8StRdt0-9" value="delay line" style="rounded=0;whiteSpace=wrap;html=1;fontFamily=Times New Roman;fontSize=20;" vertex="1" parent="1">
          <mxGeometry x="460" y="710" width="120" height="40" as="geometry" />
        </mxCell>
        <mxCell id="Jt7xizfIm4eWe8StRdt0-26" style="edgeStyle=orthogonalEdgeStyle;rounded=0;orthogonalLoop=1;jettySize=auto;html=1;exitX=0;exitY=0.25;exitDx=0;exitDy=0;entryX=1;entryY=0.25;entryDx=0;entryDy=0;" edge="1" parent="1" source="Jt7xizfIm4eWe8StRdt0-10" target="Jt7xizfIm4eWe8StRdt0-12">
          <mxGeometry relative="1" as="geometry" />
        </mxCell>
        <mxCell id="Jt7xizfIm4eWe8StRdt0-10" value="amplifier 2" style="rounded=0;whiteSpace=wrap;html=1;fontFamily=Times New Roman;fontSize=20;" vertex="1" parent="1">
          <mxGeometry x="300" y="640" width="120" height="40" as="geometry" />
        </mxCell>
        <mxCell id="Jt7xizfIm4eWe8StRdt0-27" style="edgeStyle=orthogonalEdgeStyle;rounded=0;orthogonalLoop=1;jettySize=auto;html=1;exitX=0;exitY=0.5;exitDx=0;exitDy=0;entryX=1;entryY=0.5;entryDx=0;entryDy=0;" edge="1" parent="1" source="Jt7xizfIm4eWe8StRdt0-11" target="Jt7xizfIm4eWe8StRdt0-12">
          <mxGeometry relative="1" as="geometry" />
        </mxCell>
        <mxCell id="Jt7xizfIm4eWe8StRdt0-11" value="amplifier 1" style="rounded=0;whiteSpace=wrap;html=1;fontFamily=Times New Roman;fontSize=20;" vertex="1" parent="1">
          <mxGeometry x="300" y="710" width="120" height="40" as="geometry" />
        </mxCell>
        <mxCell id="Jt7xizfIm4eWe8StRdt0-24" style="edgeStyle=orthogonalEdgeStyle;rounded=0;orthogonalLoop=1;jettySize=auto;html=1;exitX=0.5;exitY=1;exitDx=0;exitDy=0;entryX=0.5;entryY=0;entryDx=0;entryDy=0;" edge="1" parent="1" source="Jt7xizfIm4eWe8StRdt0-12" target="Jt7xizfIm4eWe8StRdt0-13">
          <mxGeometry relative="1" as="geometry" />
        </mxCell>
        <mxCell id="Jt7xizfIm4eWe8StRdt0-12" value="subtractor circuit" style="rounded=0;whiteSpace=wrap;html=1;fontFamily=Times New Roman;fontSize=20;" vertex="1" parent="1">
          <mxGeometry x="80" y="640" width="170" height="40" as="geometry" />
        </mxCell>
        <mxCell id="Jt7xizfIm4eWe8StRdt0-13" value="radar display" style="rounded=0;whiteSpace=wrap;html=1;fontFamily=Times New Roman;fontSize=20;" vertex="1" parent="1">
          <mxGeometry x="80" y="710" width="170" height="40" as="geometry" />
        </mxCell>
        <mxCell id="Jt7xizfIm4eWe8StRdt0-30" style="edgeStyle=orthogonalEdgeStyle;rounded=0;orthogonalLoop=1;jettySize=auto;html=1;exitX=0.5;exitY=1;exitDx=0;exitDy=0;entryX=0;entryY=0.5;entryDx=0;entryDy=0;" edge="1" parent="1" source="Jt7xizfIm4eWe8StRdt0-15" target="Jt7xizfIm4eWe8StRdt0-8">
          <mxGeometry relative="1" as="geometry" />
        </mxCell>
        <mxCell id="Jt7xizfIm4eWe8StRdt0-15" value="COHO&lt;span style=&quot;color: rgba(0, 0, 0, 0); font-family: monospace; font-size: 0px; text-align: start; text-wrap-mode: nowrap;&quot;&gt;%3CmxGraphModel%3E%3Croot%3E%3CmxCell%20id%3D%220%22%2F%3E%3CmxCell%20id%3D%221%22%20parent%3D%220%22%2F%3E%3CmxCell%20id%3D%222%22%20value%3D%22Mixer%202%22%20style%3D%22rounded%3D0%3BwhiteSpace%3Dwrap%3Bhtml%3D1%3BfontFamily%3DTimes%20New%20Roman%3BfontSize%3D20%3B%22%20vertex%3D%221%22%20parent%3D%221%22%3E%3CmxGeometry%20x%3D%2240%22%20y%3D%22410%22%20width%3D%22120%22%20height%3D%2240%22%20as%3D%22geometry%22%2F%3E%3C%2FmxCell%3E%3C%2Froot%3E%3C%2FmxGraphModel%3E&lt;/span&gt;" style="rounded=0;whiteSpace=wrap;html=1;fontFamily=Times New Roman;fontSize=20;" vertex="1" parent="1">
          <mxGeometry x="230" y="540" width="120" height="40" as="geometry" />
        </mxCell>
        <mxCell id="Jt7xizfIm4eWe8StRdt0-32" style="edgeStyle=orthogonalEdgeStyle;rounded=0;orthogonalLoop=1;jettySize=auto;html=1;exitX=0.5;exitY=0;exitDx=0;exitDy=0;" edge="1" parent="1" source="Jt7xizfIm4eWe8StRdt0-16">
          <mxGeometry relative="1" as="geometry">
            <mxPoint x="290" y="460" as="targetPoint" />
          </mxGeometry>
        </mxCell>
        <mxCell id="Jt7xizfIm4eWe8StRdt0-16" value="STALO" style="rounded=0;whiteSpace=wrap;html=1;fontFamily=Times New Roman;fontSize=20;" vertex="1" parent="1">
          <mxGeometry x="230" y="480" width="120" height="40" as="geometry" />
        </mxCell>
        <mxCell id="Jt7xizfIm4eWe8StRdt0-33" value="f&lt;sub&gt;o&lt;/sub&gt;" style="text;html=1;align=center;verticalAlign=middle;whiteSpace=wrap;rounded=0;fontFamily=Times New Roman;fontSize=18;" vertex="1" parent="1">
          <mxGeometry x="310" y="430" width="60" height="30" as="geometry" />
        </mxCell>
        <mxCell id="Jt7xizfIm4eWe8StRdt0-34" value="f&lt;sub&gt;o&lt;/sub&gt;" style="text;html=1;align=center;verticalAlign=middle;whiteSpace=wrap;rounded=0;fontFamily=Times New Roman;fontSize=18;" vertex="1" parent="1">
          <mxGeometry x="290" y="460" width="60" height="20" as="geometry" />
        </mxCell>
        <mxCell id="Jt7xizfIm4eWe8StRdt0-35" value="f&lt;sub&gt;c&lt;/sub&gt;" style="text;html=1;align=center;verticalAlign=middle;whiteSpace=wrap;rounded=0;fontFamily=Times New Roman;fontSize=18;" vertex="1" parent="1">
          <mxGeometry x="300" y="580" width="60" height="20" as="geometry" />
        </mxCell>
      </root>
    </mxGraphModel>
  </diagram>
</mxfile>
